%TF.GenerationSoftware,KiCad,Pcbnew,(5.0.1)-3*%
%TF.CreationDate,2019-02-02T04:30:43+03:00*%
%TF.ProjectId,Thermostat_V1 - Copy,546865726D6F737461745F5631202D20,rev?*%
%TF.SameCoordinates,Original*%
%TF.FileFunction,Paste,Top*%
%TF.FilePolarity,Positive*%
%FSLAX46Y46*%
G04 Gerber Fmt 4.6, Leading zero omitted, Abs format (unit mm)*
G04 Created by KiCad (PCBNEW (5.0.1)-3) date 2/2/2019 4:30:43 AM*
%MOMM*%
%LPD*%
G01*
G04 APERTURE LIST*
%ADD10R,1.300000X0.700000*%
%ADD11R,1.060000X0.650000*%
%ADD12R,1.100000X1.100000*%
%ADD13R,1.450000X0.450000*%
%ADD14R,0.900000X0.800000*%
%ADD15R,2.700000X0.800000*%
%ADD16R,0.700000X1.300000*%
%ADD17R,1.250000X1.000000*%
%ADD18R,1.000000X1.250000*%
%ADD19R,1.500000X0.600000*%
%ADD20R,0.800000X0.900000*%
%ADD21R,1.600000X1.000000*%
%ADD22R,1.000000X1.600000*%
%ADD23R,2.500000X1.800000*%
%ADD24R,1.200000X1.200000*%
%ADD25R,1.500000X1.950000*%
%ADD26R,3.200000X1.000000*%
%ADD27R,0.640000X2.000000*%
%ADD28C,0.100000*%
%ADD29C,1.250000*%
%ADD30R,0.650000X1.060000*%
%ADD31R,1.700000X0.900000*%
G04 APERTURE END LIST*
D10*
X68326000Y-147224000D03*
X68326000Y-145324000D03*
X93345000Y-129322000D03*
X93345000Y-131222000D03*
X67310000Y-114585000D03*
X67310000Y-112685000D03*
X57150000Y-114585000D03*
X57150000Y-112685000D03*
X52070000Y-114585000D03*
X52070000Y-112685000D03*
X62230000Y-112685000D03*
X62230000Y-114585000D03*
D11*
X47541000Y-143099000D03*
X47541000Y-144049000D03*
X47541000Y-142149000D03*
X49741000Y-142149000D03*
X49741000Y-143099000D03*
X49741000Y-144049000D03*
D12*
X51816000Y-144493000D03*
X51816000Y-147293000D03*
D13*
X86458000Y-144119000D03*
X86458000Y-143469000D03*
X86458000Y-142819000D03*
X86458000Y-142169000D03*
X86458000Y-141519000D03*
X86458000Y-140869000D03*
X86458000Y-140219000D03*
X86458000Y-139569000D03*
X86458000Y-138919000D03*
X86458000Y-138269000D03*
X92358000Y-138269000D03*
X92358000Y-138919000D03*
X92358000Y-139569000D03*
X92358000Y-140219000D03*
X92358000Y-140869000D03*
X92358000Y-141519000D03*
X92358000Y-142169000D03*
X92358000Y-142819000D03*
X92358000Y-143469000D03*
X92358000Y-144119000D03*
D14*
X82280000Y-150719000D03*
X80280000Y-151669000D03*
X80280000Y-149769000D03*
D11*
X60917000Y-140498000D03*
X60917000Y-142398000D03*
X58717000Y-142398000D03*
X58717000Y-141448000D03*
X58717000Y-140498000D03*
D15*
X54864000Y-145174000D03*
X54864000Y-147374000D03*
D16*
X95570000Y-137257000D03*
X97470000Y-137257000D03*
X74996000Y-153513000D03*
X76896000Y-153513000D03*
X95570000Y-135352000D03*
X97470000Y-135352000D03*
X95570000Y-146401000D03*
X97470000Y-146401000D03*
D10*
X51054000Y-138466000D03*
X51054000Y-140366000D03*
D16*
X69154000Y-158593000D03*
X71054000Y-158593000D03*
X76896000Y-151481000D03*
X74996000Y-151481000D03*
X84394000Y-155545000D03*
X86294000Y-155545000D03*
D10*
X47244000Y-140366000D03*
X47244000Y-138466000D03*
X52959000Y-138466000D03*
X52959000Y-140366000D03*
X88646000Y-149515000D03*
X88646000Y-151415000D03*
X78359000Y-147737000D03*
X78359000Y-149637000D03*
X49149000Y-140366000D03*
X49149000Y-138466000D03*
D17*
X56769000Y-142448000D03*
X56769000Y-140448000D03*
D18*
X60849000Y-144369000D03*
X62849000Y-144369000D03*
X95520000Y-139035000D03*
X97520000Y-139035000D03*
X97520000Y-140813000D03*
X95520000Y-140813000D03*
X97520000Y-142591000D03*
X95520000Y-142591000D03*
X27416000Y-142845000D03*
X25416000Y-142845000D03*
X27416000Y-146655000D03*
X25416000Y-146655000D03*
X49641000Y-146020000D03*
X47641000Y-146020000D03*
D17*
X82931000Y-141559000D03*
X82931000Y-139559000D03*
X62865000Y-140448000D03*
X62865000Y-142448000D03*
D18*
X74279000Y-122144000D03*
X72279000Y-122144000D03*
D16*
X95570000Y-144496000D03*
X97470000Y-144496000D03*
D10*
X91059000Y-153955000D03*
X91059000Y-152055000D03*
D18*
X86344000Y-157450000D03*
X84344000Y-157450000D03*
D17*
X91059000Y-157561000D03*
X91059000Y-155561000D03*
D18*
X95520000Y-133447000D03*
X97520000Y-133447000D03*
X86344000Y-147544000D03*
X84344000Y-147544000D03*
D10*
X61281319Y-134245061D03*
X61281319Y-132345061D03*
X63821319Y-132345061D03*
X63821319Y-134245061D03*
D14*
X82280000Y-154402000D03*
X80280000Y-155352000D03*
X80280000Y-153452000D03*
D10*
X53661319Y-124593061D03*
X53661319Y-122693061D03*
X61281319Y-124593061D03*
X61281319Y-122693061D03*
D19*
X74268319Y-124659061D03*
X74268319Y-125929061D03*
X74268319Y-127199061D03*
X74268319Y-128469061D03*
X74268319Y-129739061D03*
X74268319Y-131009061D03*
X74268319Y-132279061D03*
X74268319Y-133549061D03*
X68868319Y-133549061D03*
X68868319Y-132279061D03*
X68868319Y-131009061D03*
X68868319Y-129739061D03*
X68868319Y-128469061D03*
X68868319Y-127199061D03*
X68868319Y-125929061D03*
X68868319Y-124659061D03*
D20*
X52067500Y-116127500D03*
X50167500Y-116127500D03*
X51117500Y-118127500D03*
D10*
X58741319Y-134245061D03*
X58741319Y-132345061D03*
X63821319Y-122693061D03*
X63821319Y-124593061D03*
X66361319Y-134245061D03*
X66361319Y-132345061D03*
X56201319Y-132345061D03*
X56201319Y-134245061D03*
D21*
X45085000Y-138551000D03*
X45085000Y-141551000D03*
D20*
X61277500Y-118127500D03*
X60327500Y-116127500D03*
X62227500Y-116127500D03*
X66357500Y-118127500D03*
X65407500Y-116127500D03*
X67307500Y-116127500D03*
D22*
X54840000Y-142464000D03*
X51840000Y-142464000D03*
D21*
X42672000Y-141551000D03*
X42672000Y-138551000D03*
D23*
X39592000Y-142591000D03*
X35592000Y-142591000D03*
D24*
X58674000Y-146358000D03*
X58674000Y-144158000D03*
D25*
X88646000Y-156920000D03*
X88646000Y-154170000D03*
D16*
X86294000Y-149449000D03*
X84394000Y-149449000D03*
D14*
X91424000Y-131222000D03*
X91424000Y-129322000D03*
X89424000Y-130272000D03*
X64532000Y-146274000D03*
X66532000Y-145324000D03*
X66532000Y-147224000D03*
D20*
X57147500Y-116127500D03*
X55247500Y-116127500D03*
X56197500Y-118127500D03*
D26*
X30226000Y-140507000D03*
X30226000Y-146707000D03*
D27*
X25781000Y-133853000D03*
X27051000Y-133853000D03*
X27051000Y-140153000D03*
X25781000Y-140153000D03*
D28*
G36*
X43321504Y-142853204D02*
X43345773Y-142856804D01*
X43369571Y-142862765D01*
X43392671Y-142871030D01*
X43414849Y-142881520D01*
X43435893Y-142894133D01*
X43455598Y-142908747D01*
X43473777Y-142925223D01*
X43490253Y-142943402D01*
X43504867Y-142963107D01*
X43517480Y-142984151D01*
X43527970Y-143006329D01*
X43536235Y-143029429D01*
X43542196Y-143053227D01*
X43545796Y-143077496D01*
X43547000Y-143102000D01*
X43547000Y-143852000D01*
X43545796Y-143876504D01*
X43542196Y-143900773D01*
X43536235Y-143924571D01*
X43527970Y-143947671D01*
X43517480Y-143969849D01*
X43504867Y-143990893D01*
X43490253Y-144010598D01*
X43473777Y-144028777D01*
X43455598Y-144045253D01*
X43435893Y-144059867D01*
X43414849Y-144072480D01*
X43392671Y-144082970D01*
X43369571Y-144091235D01*
X43345773Y-144097196D01*
X43321504Y-144100796D01*
X43297000Y-144102000D01*
X42047000Y-144102000D01*
X42022496Y-144100796D01*
X41998227Y-144097196D01*
X41974429Y-144091235D01*
X41951329Y-144082970D01*
X41929151Y-144072480D01*
X41908107Y-144059867D01*
X41888402Y-144045253D01*
X41870223Y-144028777D01*
X41853747Y-144010598D01*
X41839133Y-143990893D01*
X41826520Y-143969849D01*
X41816030Y-143947671D01*
X41807765Y-143924571D01*
X41801804Y-143900773D01*
X41798204Y-143876504D01*
X41797000Y-143852000D01*
X41797000Y-143102000D01*
X41798204Y-143077496D01*
X41801804Y-143053227D01*
X41807765Y-143029429D01*
X41816030Y-143006329D01*
X41826520Y-142984151D01*
X41839133Y-142963107D01*
X41853747Y-142943402D01*
X41870223Y-142925223D01*
X41888402Y-142908747D01*
X41908107Y-142894133D01*
X41929151Y-142881520D01*
X41951329Y-142871030D01*
X41974429Y-142862765D01*
X41998227Y-142856804D01*
X42022496Y-142853204D01*
X42047000Y-142852000D01*
X43297000Y-142852000D01*
X43321504Y-142853204D01*
X43321504Y-142853204D01*
G37*
D29*
X42672000Y-143477000D03*
D28*
G36*
X43321504Y-145653204D02*
X43345773Y-145656804D01*
X43369571Y-145662765D01*
X43392671Y-145671030D01*
X43414849Y-145681520D01*
X43435893Y-145694133D01*
X43455598Y-145708747D01*
X43473777Y-145725223D01*
X43490253Y-145743402D01*
X43504867Y-145763107D01*
X43517480Y-145784151D01*
X43527970Y-145806329D01*
X43536235Y-145829429D01*
X43542196Y-145853227D01*
X43545796Y-145877496D01*
X43547000Y-145902000D01*
X43547000Y-146652000D01*
X43545796Y-146676504D01*
X43542196Y-146700773D01*
X43536235Y-146724571D01*
X43527970Y-146747671D01*
X43517480Y-146769849D01*
X43504867Y-146790893D01*
X43490253Y-146810598D01*
X43473777Y-146828777D01*
X43455598Y-146845253D01*
X43435893Y-146859867D01*
X43414849Y-146872480D01*
X43392671Y-146882970D01*
X43369571Y-146891235D01*
X43345773Y-146897196D01*
X43321504Y-146900796D01*
X43297000Y-146902000D01*
X42047000Y-146902000D01*
X42022496Y-146900796D01*
X41998227Y-146897196D01*
X41974429Y-146891235D01*
X41951329Y-146882970D01*
X41929151Y-146872480D01*
X41908107Y-146859867D01*
X41888402Y-146845253D01*
X41870223Y-146828777D01*
X41853747Y-146810598D01*
X41839133Y-146790893D01*
X41826520Y-146769849D01*
X41816030Y-146747671D01*
X41807765Y-146724571D01*
X41801804Y-146700773D01*
X41798204Y-146676504D01*
X41797000Y-146652000D01*
X41797000Y-145902000D01*
X41798204Y-145877496D01*
X41801804Y-145853227D01*
X41807765Y-145829429D01*
X41816030Y-145806329D01*
X41826520Y-145784151D01*
X41839133Y-145763107D01*
X41853747Y-145743402D01*
X41870223Y-145725223D01*
X41888402Y-145708747D01*
X41908107Y-145694133D01*
X41929151Y-145681520D01*
X41951329Y-145671030D01*
X41974429Y-145662765D01*
X41998227Y-145656804D01*
X42022496Y-145653204D01*
X42047000Y-145652000D01*
X43297000Y-145652000D01*
X43321504Y-145653204D01*
X43321504Y-145653204D01*
G37*
D29*
X42672000Y-146277000D03*
D16*
X60899000Y-146274000D03*
X62799000Y-146274000D03*
D30*
X86294000Y-153597000D03*
X84394000Y-153597000D03*
X84394000Y-151397000D03*
X85344000Y-151397000D03*
X86294000Y-151397000D03*
D23*
X35592000Y-146274000D03*
X39592000Y-146274000D03*
D16*
X25466000Y-144750000D03*
X27366000Y-144750000D03*
D31*
X45085000Y-143427000D03*
X45085000Y-146327000D03*
D10*
X62230000Y-65085000D03*
X62230000Y-63185000D03*
X67310000Y-63185000D03*
X67310000Y-65085000D03*
X93345000Y-81722000D03*
X93345000Y-79822000D03*
X52070000Y-63185000D03*
X52070000Y-65085000D03*
X68326000Y-95824000D03*
X68326000Y-97724000D03*
X57150000Y-63185000D03*
X57150000Y-65085000D03*
D18*
X95520000Y-91313000D03*
X97520000Y-91313000D03*
X95520000Y-93091000D03*
X97520000Y-93091000D03*
D17*
X82931000Y-90059000D03*
X82931000Y-92059000D03*
D18*
X72279000Y-72644000D03*
X74279000Y-72644000D03*
D17*
X62865000Y-92948000D03*
X62865000Y-90948000D03*
X91059000Y-106061000D03*
X91059000Y-108061000D03*
X56769000Y-90948000D03*
X56769000Y-92948000D03*
D18*
X47641000Y-96520000D03*
X49641000Y-96520000D03*
X25416000Y-97155000D03*
X27416000Y-97155000D03*
X84344000Y-98044000D03*
X86344000Y-98044000D03*
X97520000Y-83947000D03*
X95520000Y-83947000D03*
X25416000Y-93345000D03*
X27416000Y-93345000D03*
X97520000Y-89535000D03*
X95520000Y-89535000D03*
X84344000Y-107950000D03*
X86344000Y-107950000D03*
X62849000Y-94869000D03*
X60849000Y-94869000D03*
D10*
X91059000Y-102555000D03*
X91059000Y-104455000D03*
D16*
X97470000Y-94996000D03*
X95570000Y-94996000D03*
D10*
X88646000Y-101915000D03*
X88646000Y-100015000D03*
D16*
X86294000Y-106045000D03*
X84394000Y-106045000D03*
D10*
X52959000Y-90866000D03*
X52959000Y-88966000D03*
X51054000Y-90866000D03*
X51054000Y-88966000D03*
X47244000Y-88966000D03*
X47244000Y-90866000D03*
X49149000Y-88966000D03*
X49149000Y-90866000D03*
X78359000Y-100137000D03*
X78359000Y-98237000D03*
D16*
X97470000Y-96901000D03*
X95570000Y-96901000D03*
X74996000Y-101981000D03*
X76896000Y-101981000D03*
X71054000Y-109093000D03*
X69154000Y-109093000D03*
X97470000Y-85852000D03*
X95570000Y-85852000D03*
X76896000Y-104013000D03*
X74996000Y-104013000D03*
X97470000Y-87757000D03*
X95570000Y-87757000D03*
X84394000Y-99949000D03*
X86294000Y-99949000D03*
X27366000Y-95250000D03*
X25466000Y-95250000D03*
D31*
X45085000Y-96827000D03*
X45085000Y-93927000D03*
D30*
X86294000Y-101897000D03*
X85344000Y-101897000D03*
X84394000Y-101897000D03*
X84394000Y-104097000D03*
X86294000Y-104097000D03*
D24*
X58674000Y-94658000D03*
X58674000Y-96858000D03*
D16*
X62799000Y-96774000D03*
X60899000Y-96774000D03*
D25*
X88646000Y-104670000D03*
X88646000Y-107420000D03*
D23*
X35592000Y-93091000D03*
X39592000Y-93091000D03*
X39592000Y-96774000D03*
X35592000Y-96774000D03*
D28*
G36*
X43321504Y-96153204D02*
X43345773Y-96156804D01*
X43369571Y-96162765D01*
X43392671Y-96171030D01*
X43414849Y-96181520D01*
X43435893Y-96194133D01*
X43455598Y-96208747D01*
X43473777Y-96225223D01*
X43490253Y-96243402D01*
X43504867Y-96263107D01*
X43517480Y-96284151D01*
X43527970Y-96306329D01*
X43536235Y-96329429D01*
X43542196Y-96353227D01*
X43545796Y-96377496D01*
X43547000Y-96402000D01*
X43547000Y-97152000D01*
X43545796Y-97176504D01*
X43542196Y-97200773D01*
X43536235Y-97224571D01*
X43527970Y-97247671D01*
X43517480Y-97269849D01*
X43504867Y-97290893D01*
X43490253Y-97310598D01*
X43473777Y-97328777D01*
X43455598Y-97345253D01*
X43435893Y-97359867D01*
X43414849Y-97372480D01*
X43392671Y-97382970D01*
X43369571Y-97391235D01*
X43345773Y-97397196D01*
X43321504Y-97400796D01*
X43297000Y-97402000D01*
X42047000Y-97402000D01*
X42022496Y-97400796D01*
X41998227Y-97397196D01*
X41974429Y-97391235D01*
X41951329Y-97382970D01*
X41929151Y-97372480D01*
X41908107Y-97359867D01*
X41888402Y-97345253D01*
X41870223Y-97328777D01*
X41853747Y-97310598D01*
X41839133Y-97290893D01*
X41826520Y-97269849D01*
X41816030Y-97247671D01*
X41807765Y-97224571D01*
X41801804Y-97200773D01*
X41798204Y-97176504D01*
X41797000Y-97152000D01*
X41797000Y-96402000D01*
X41798204Y-96377496D01*
X41801804Y-96353227D01*
X41807765Y-96329429D01*
X41816030Y-96306329D01*
X41826520Y-96284151D01*
X41839133Y-96263107D01*
X41853747Y-96243402D01*
X41870223Y-96225223D01*
X41888402Y-96208747D01*
X41908107Y-96194133D01*
X41929151Y-96181520D01*
X41951329Y-96171030D01*
X41974429Y-96162765D01*
X41998227Y-96156804D01*
X42022496Y-96153204D01*
X42047000Y-96152000D01*
X43297000Y-96152000D01*
X43321504Y-96153204D01*
X43321504Y-96153204D01*
G37*
D29*
X42672000Y-96777000D03*
D28*
G36*
X43321504Y-93353204D02*
X43345773Y-93356804D01*
X43369571Y-93362765D01*
X43392671Y-93371030D01*
X43414849Y-93381520D01*
X43435893Y-93394133D01*
X43455598Y-93408747D01*
X43473777Y-93425223D01*
X43490253Y-93443402D01*
X43504867Y-93463107D01*
X43517480Y-93484151D01*
X43527970Y-93506329D01*
X43536235Y-93529429D01*
X43542196Y-93553227D01*
X43545796Y-93577496D01*
X43547000Y-93602000D01*
X43547000Y-94352000D01*
X43545796Y-94376504D01*
X43542196Y-94400773D01*
X43536235Y-94424571D01*
X43527970Y-94447671D01*
X43517480Y-94469849D01*
X43504867Y-94490893D01*
X43490253Y-94510598D01*
X43473777Y-94528777D01*
X43455598Y-94545253D01*
X43435893Y-94559867D01*
X43414849Y-94572480D01*
X43392671Y-94582970D01*
X43369571Y-94591235D01*
X43345773Y-94597196D01*
X43321504Y-94600796D01*
X43297000Y-94602000D01*
X42047000Y-94602000D01*
X42022496Y-94600796D01*
X41998227Y-94597196D01*
X41974429Y-94591235D01*
X41951329Y-94582970D01*
X41929151Y-94572480D01*
X41908107Y-94559867D01*
X41888402Y-94545253D01*
X41870223Y-94528777D01*
X41853747Y-94510598D01*
X41839133Y-94490893D01*
X41826520Y-94469849D01*
X41816030Y-94447671D01*
X41807765Y-94424571D01*
X41801804Y-94400773D01*
X41798204Y-94376504D01*
X41797000Y-94352000D01*
X41797000Y-93602000D01*
X41798204Y-93577496D01*
X41801804Y-93553227D01*
X41807765Y-93529429D01*
X41816030Y-93506329D01*
X41826520Y-93484151D01*
X41839133Y-93463107D01*
X41853747Y-93443402D01*
X41870223Y-93425223D01*
X41888402Y-93408747D01*
X41908107Y-93394133D01*
X41929151Y-93381520D01*
X41951329Y-93371030D01*
X41974429Y-93362765D01*
X41998227Y-93356804D01*
X42022496Y-93353204D01*
X42047000Y-93352000D01*
X43297000Y-93352000D01*
X43321504Y-93353204D01*
X43321504Y-93353204D01*
G37*
D29*
X42672000Y-93977000D03*
D27*
X25781000Y-90653000D03*
X27051000Y-90653000D03*
X27051000Y-84353000D03*
X25781000Y-84353000D03*
D26*
X30226000Y-97207000D03*
X30226000Y-91007000D03*
D20*
X56197500Y-68627500D03*
X55247500Y-66627500D03*
X57147500Y-66627500D03*
D14*
X66532000Y-97724000D03*
X66532000Y-95824000D03*
X64532000Y-96774000D03*
X89424000Y-80772000D03*
X91424000Y-79822000D03*
X91424000Y-81722000D03*
D20*
X62227500Y-66627500D03*
X60327500Y-66627500D03*
X61277500Y-68627500D03*
X51117500Y-68627500D03*
X50167500Y-66627500D03*
X52067500Y-66627500D03*
X67307500Y-66627500D03*
X65407500Y-66627500D03*
X66357500Y-68627500D03*
D10*
X56201319Y-84745061D03*
X56201319Y-82845061D03*
X66361319Y-82845061D03*
X66361319Y-84745061D03*
X63821319Y-84745061D03*
X63821319Y-82845061D03*
X58741319Y-82845061D03*
X58741319Y-84745061D03*
X53661319Y-73193061D03*
X53661319Y-75093061D03*
X63821319Y-75093061D03*
X63821319Y-73193061D03*
X61281319Y-73193061D03*
X61281319Y-75093061D03*
X61281319Y-82845061D03*
X61281319Y-84745061D03*
D19*
X68868319Y-75159061D03*
X68868319Y-76429061D03*
X68868319Y-77699061D03*
X68868319Y-78969061D03*
X68868319Y-80239061D03*
X68868319Y-81509061D03*
X68868319Y-82779061D03*
X68868319Y-84049061D03*
X74268319Y-84049061D03*
X74268319Y-82779061D03*
X74268319Y-81509061D03*
X74268319Y-80239061D03*
X74268319Y-78969061D03*
X74268319Y-77699061D03*
X74268319Y-76429061D03*
X74268319Y-75159061D03*
D14*
X80280000Y-103952000D03*
X80280000Y-105852000D03*
X82280000Y-104902000D03*
D21*
X42672000Y-89051000D03*
X42672000Y-92051000D03*
X45085000Y-92051000D03*
X45085000Y-89051000D03*
D22*
X51840000Y-92964000D03*
X54840000Y-92964000D03*
D12*
X51816000Y-97793000D03*
X51816000Y-94993000D03*
D15*
X54864000Y-97874000D03*
X54864000Y-95674000D03*
D11*
X58717000Y-90998000D03*
X58717000Y-91948000D03*
X58717000Y-92898000D03*
X60917000Y-92898000D03*
X60917000Y-90998000D03*
X49741000Y-94549000D03*
X49741000Y-93599000D03*
X49741000Y-92649000D03*
X47541000Y-92649000D03*
X47541000Y-94549000D03*
X47541000Y-93599000D03*
D13*
X92358000Y-94619000D03*
X92358000Y-93969000D03*
X92358000Y-93319000D03*
X92358000Y-92669000D03*
X92358000Y-92019000D03*
X92358000Y-91369000D03*
X92358000Y-90719000D03*
X92358000Y-90069000D03*
X92358000Y-89419000D03*
X92358000Y-88769000D03*
X86458000Y-88769000D03*
X86458000Y-89419000D03*
X86458000Y-90069000D03*
X86458000Y-90719000D03*
X86458000Y-91369000D03*
X86458000Y-92019000D03*
X86458000Y-92669000D03*
X86458000Y-93319000D03*
X86458000Y-93969000D03*
X86458000Y-94619000D03*
D14*
X80280000Y-100269000D03*
X80280000Y-102169000D03*
X82280000Y-101219000D03*
M02*
