M48
;DRILL file {KiCad (5.0.1)-3} date 2/2/2019 4:31:02 AM
;FORMAT={-:-/ absolute / inch / decimal}
FMAT,2
INCH,TZ
T1C0.0118
T2C0.0157
T3C0.0197
T4C0.0354
T5C0.0394
T6C0.0598
%
G90
G05
M72
T1
X1.015Y-3.39
X1.015Y-5.3388
X1.19Y-3.505
X1.19Y-5.4538
X2.01Y-3.47
X2.01Y-5.4188
X2.69Y-3.585
X2.69Y-3.705
X2.69Y-5.5338
X2.69Y-5.6538
X2.83Y-4.295
X2.83Y-6.2438
X2.975Y-3.06
X2.975Y-5.0088
X2.985Y-3.27
X2.985Y-5.2188
X3.Y-3.16
X3.Y-3.24
X3.Y-5.1088
X3.Y-5.1888
X3.025Y-3.945
X3.025Y-5.8938
X3.085Y-3.8287
X3.085Y-5.7776
X3.12Y-4.02
X3.12Y-4.09
X3.12Y-4.17
X3.12Y-5.9688
X3.12Y-6.0388
X3.12Y-6.1188
X3.145Y-3.865
X3.145Y-5.8138
X3.22Y-3.545
X3.22Y-5.4938
X3.3298Y-3.377
X3.3298Y-5.3258
X3.33Y-3.675
X3.33Y-5.6238
X3.355Y-3.415
X3.355Y-3.65
X3.355Y-5.3638
X3.355Y-5.5988
X3.4Y-3.8
X3.4Y-5.7488
X3.455Y-3.595
X3.455Y-5.5438
X3.46Y-3.52
X3.46Y-5.4688
X3.49Y-3.525
X3.49Y-5.4738
X3.525Y-3.525
X3.525Y-5.4738
X3.565Y-3.71
X3.565Y-3.74
X3.565Y-5.6588
X3.565Y-5.6888
X3.57Y-3.56
X3.57Y-5.5088
X3.675Y-3.045
X3.675Y-4.9938
X3.71Y-3.38
X3.71Y-3.65
X3.71Y-5.3288
X3.71Y-5.5988
X3.7193Y-3.69
X3.7193Y-5.6388
X3.73Y-3.77
X3.73Y-5.7188
X3.745Y-3.145
X3.745Y-5.0938
X3.755Y-3.945
X3.755Y-5.8938
X3.8394Y-3.56
X3.8394Y-3.63
X3.8394Y-5.5088
X3.8394Y-5.5788
X3.875Y-3.815
X3.875Y-5.7638
T2
X1.Y-3.885
X1.Y-5.8338
X1.065Y-3.24
X1.065Y-5.1888
X1.08Y-3.885
X1.08Y-5.8338
X1.13Y-3.675
X1.13Y-5.6238
X1.625Y-3.505
X1.625Y-5.4538
X1.94Y-2.625
X1.94Y-4.5738
X2.005Y-3.685
X2.005Y-5.6338
X2.04Y-3.705
X2.04Y-5.6538
X2.135Y-2.625
X2.135Y-4.5738
X2.16Y-3.505
X2.16Y-5.4538
X2.2Y-3.58
X2.2Y-5.5288
X2.335Y-2.625
X2.335Y-4.5738
X2.475Y-3.7
X2.475Y-5.6488
X2.535Y-2.625
X2.535Y-4.5738
X2.62Y-3.725
X2.62Y-5.6738
X2.69Y-4.295
X2.69Y-6.2438
X2.76Y-3.31
X2.76Y-5.2588
X2.805Y-2.86
X2.805Y-4.8088
X2.855Y-3.26
X2.855Y-5.2088
X2.86Y-2.96
X2.86Y-4.9088
X2.88Y-3.11
X2.88Y-5.0588
X3.265Y-3.745
X3.265Y-5.6938
X3.44Y-4.25
X3.44Y-6.1988
X3.54Y-4.2544
X3.54Y-6.2032
X3.585Y-3.9
X3.585Y-5.8488
X3.6Y-3.105
X3.6Y-5.0538
X3.84Y-3.26
X3.84Y-5.2088
X3.87Y-3.74
X3.87Y-5.6888
T3
X2.16Y-3.72
X2.16Y-5.6688
T4
X1.3083Y-3.3071
X1.4083Y-3.3071
X3.3161Y-2.9134
X3.4161Y-2.9134
X1.3083Y-4.8622
X1.4083Y-4.8622
X2.1122Y-2.8102
X2.1122Y-3.4102
X2.2122Y-2.8102
X2.2122Y-3.4102
X2.3122Y-2.8102
X2.3122Y-3.4102
X2.4122Y-2.8102
X2.4122Y-3.4102
X2.5122Y-2.8102
X2.5122Y-3.4102
X2.6122Y-2.8102
X2.6122Y-3.4102
X2.1122Y-4.7591
X2.1122Y-5.3591
X2.2122Y-4.7591
X2.2122Y-5.3591
X2.3122Y-4.7591
X2.3122Y-5.3591
X2.4122Y-4.7591
X2.4122Y-5.3591
X2.5122Y-4.7591
X2.5122Y-5.3591
X2.6122Y-4.7591
X2.6122Y-5.3591
X1.3083Y-5.2559
X1.4083Y-5.2559
X1.3083Y-2.9134
X1.4083Y-2.9134
X3.3161Y-4.8622
X3.4161Y-4.8622
T5
X3.84Y-4.7938
X3.84Y-4.8938
X3.84Y-4.9938
X3.84Y-5.0938
X3.2175Y-3.3071
X3.5167Y-3.3071
X3.84Y-2.845
X3.84Y-2.945
X3.84Y-3.045
X3.84Y-3.145
X3.2175Y-5.2559
X3.5167Y-5.2559
T6
X1.16Y-6.0438
X1.36Y-6.0438
X2.56Y-6.0438
X2.76Y-6.0438
X2.56Y-4.095
X2.76Y-4.095
X1.56Y-4.095
X1.76Y-4.095
X1.96Y-4.095
X2.16Y-6.0438
X2.36Y-6.0438
X2.16Y-4.095
X2.36Y-4.095
X1.56Y-6.0438
X1.76Y-6.0438
X1.96Y-6.0438
X1.16Y-4.095
X1.36Y-4.095
T0
M30
